<?xml version="1.0" encoding="iso-8859-1"?>
<!-- Uploaded to: SVG Repo, www.svgrepo.com, Generator: SVG Repo Mixer Tools -->
<svg fill="#000000" height="800px" width="800px" version="1.1" id="Layer_1" xmlns="http://www.w3.org/2000/svg" xmlns:xlink="http://www.w3.org/1999/xlink" 
	 viewBox="0 0 512 512" xml:space="preserve">
<g>
	<g>
		<path d="M435.574,17.102h-26.188v-0.534C409.386,7.432,401.954,0,392.818,0h-51.307c-9.136,0-16.568,7.432-16.568,16.568v0.534
			H76.426c-13.851,0-25.119,11.268-25.119,25.119v444.66c0,13.851,11.268,25.119,25.119,25.119h359.148
			c13.851,0,25.119-11.268,25.119-25.119V42.221C460.693,28.371,449.425,17.102,435.574,17.102z M340.977,16.568
			c0-0.295,0.239-0.534,0.534-0.534h51.307c0.295,0,0.534,0.239,0.534,0.534v8.54c0,0.003,0,0.006,0,0.011s0,0.006,0,0.011v103.672
			l-21.378-16.033c-1.425-1.069-3.118-1.603-4.81-1.603s-3.385,0.534-4.81,1.603l-21.378,16.033V16.568z M444.66,486.881
			c0,5.01-4.076,9.086-9.086,9.086H76.426c-5.01,0-9.086-4.076-9.086-9.086V42.221c0-5.01,4.076-9.086,9.086-9.086h248.518v111.699
			c0,3.037,1.716,5.813,4.432,7.17c2.716,1.357,5.966,1.066,8.395-0.757l29.395-22.046l29.395,22.046
			c1.414,1.061,3.107,1.603,4.811,1.603c1.222,0,2.45-0.279,3.584-0.847c2.716-1.357,4.432-4.133,4.432-7.17V33.136h26.188
			c5.01,0,9.086,4.076,9.086,9.086V486.881z"/>
	</g>
</g>
<g>
	<g>
		<path d="M93.528,51.307c-4.427,0-8.017,3.589-8.017,8.017v410.455c0,4.427,3.589,8.017,8.017,8.017s8.017-3.589,8.017-8.017
			V59.324C101.545,54.896,97.956,51.307,93.528,51.307z"/>
	</g>
</g>
<g>
	<g>
		<path d="M340.367,261.483c-1.241-2.996-4.164-4.949-7.406-4.949h-26.188V179.04c0-4.427-3.589-8.017-8.017-8.017h-68.409
			c-4.427,0-8.017,3.589-8.017,8.017v77.495h-26.188c-3.243,0-6.165,1.953-7.406,4.949c-1.241,2.996-0.555,6.443,1.738,8.736
			l68.409,68.409c1.565,1.565,3.617,2.348,5.668,2.348s4.104-0.782,5.668-2.348l68.409-68.409
			C340.921,267.927,341.608,264.478,340.367,261.483z M264.551,321.624l-49.056-49.056h14.851c4.427,0,8.017-3.589,8.017-8.017
			v-77.495h52.376v77.495c0,4.427,3.589,8.017,8.017,8.017h14.851L264.551,321.624z"/>
	</g>
</g>
<g>
	<g>
		<path d="M358.614,316.393c-4.427,0-8.017,3.589-8.017,8.017v34.205c0,0.295-0.239,0.534-0.534,0.534H179.04
			c-0.295,0-0.534-0.239-0.534-0.534v-34.205c0-4.427-3.589-8.017-8.017-8.017s-8.017,3.589-8.017,8.017v34.205
			c0,9.136,7.432,16.568,16.568,16.568h171.023c9.136,0,16.568-7.432,16.568-16.568v-34.205
			C366.63,319.982,363.041,316.393,358.614,316.393z"/>
	</g>
</g>
</svg>